<svg width="32" height="32" viewBox="0 0 32 32" fill="none" xmlns="http://www.w3.org/2000/svg">
  <defs>
    <linearGradient id="faviconGradient" x1="0%" y1="0%" x2="100%" y2="100%">
      <stop offset="0%" style="stop-color:#00ff88;stop-opacity:1" />
      <stop offset="50%" style="stop-color:#00d4ff;stop-opacity:1" />
      <stop offset="100%" style="stop-color:#ff0080;stop-opacity:1" />
    </linearGradient>
    <filter id="faviconGlow">
      <feGaussianBlur stdDeviation="1" result="coloredBlur"/>
      <feMerge> 
        <feMergeNode in="coloredBlur"/>
        <feMergeNode in="SourceGraphic"/>
      </feMerge>
    </filter>
  </defs>
  
  <!-- Background -->
  <rect width="32" height="32" rx="6" fill="#0a0a0a"/>
  
  <!-- Hexagon outline -->
  <polygon points="16,4 24,8 24,16 16,20 8,16 8,8" 
           fill="none" 
           stroke="url(#faviconGradient)" 
           stroke-width="1.5" 
           filter="url(#faviconGlow)"/>
  
  <!-- Central processor -->
  <rect x="13" y="13" width="6" height="6" rx="0.5" 
        fill="url(#faviconGradient)" 
        filter="url(#faviconGlow)"/>
  
  <!-- Circuit connections -->
  <g fill="url(#faviconGradient)" opacity="0.8">
    <!-- Horizontal connections -->
    <rect x="10" y="15" width="3" height="1"/>
    <rect x="19" y="15" width="3" height="1"/>
    <rect x="10" y="17" width="3" height="1"/>
    <rect x="19" y="17" width="3" height="1"/>
    
    <!-- Vertical connections -->
    <rect x="15" y="10" width="1" height="3"/>
    <rect x="17" y="10" width="1" height="3"/>
    <rect x="15" y="19" width="1" height="3"/>
    <rect x="17" y="19" width="1" height="3"/>
    
    <!-- Corner nodes -->
    <circle cx="10" cy="10" r="0.8"/>
    <circle cx="22" cy="10" r="0.8"/>
    <circle cx="10" cy="22" r="0.8"/>
    <circle cx="22" cy="22" r="0.8"/>
  </g>
  
  <!-- Animated pulse -->
  <circle cx="16" cy="16" r="2" fill="none" stroke="#00ff88" stroke-width="0.5" opacity="0.6">
    <animate attributeName="r" values="2;4;2" dur="2s" repeatCount="indefinite"/>
    <animate attributeName="opacity" values="0.6;0;0.6" dur="2s" repeatCount="indefinite"/>
  </circle>
</svg>